<svg xmlns="http://www.w3.org/2000/svg" version="1.1" xmlns:xlink="http://www.w3.org/1999/xlink" xmlns:svgjs="http://svgjs.dev/svgjs" width="2000" height="464" viewBox="0 0 2000 464"><g transform="matrix(1,0,0,1,-1.2121212121212466,0.5230577346043219)"><svg viewBox="0 0 396 92" data-background-color="#ffffff" preserveAspectRatio="xMidYMid meet" height="464" width="2000" xmlns="http://www.w3.org/2000/svg" xmlns:xlink="http://www.w3.org/1999/xlink"><g id="tight-bounds" transform="matrix(1,0,0,1,0.2400000000000091,-0.10370972324051309)"><svg viewBox="0 0 395.52 92.20741944648103" height="92.20741944648103" width="395.52"><g><svg viewBox="0 0 395.52 92.20741944648103" height="92.20741944648103" width="395.52"><g><svg viewBox="0 0 486.5843805032871 113.43722206000385" height="92.20741944648103" width="395.52"><g transform="matrix(1,0,0,1,91.06438050328711,29.3579689508886)"><svg viewBox="0 0 395.52 54.721284158226645" height="54.721284158226645" width="395.52"><g id="textblocktransform"><svg viewBox="0 0 395.52 54.721284158226645" height="54.721284158226645" width="395.52" id="textblock"><g><svg viewBox="0 0 395.52 54.721284158226645" height="54.721284158226645" width="395.52"><g transform="matrix(1,0,0,1,0,0)"><svg width="395.52" viewBox="-0.4 -35.6 261.78 36.2" height="54.721284158226645" data-palette-color="#000000"><g class="wordmark-text-0" data-fill-palette-color="primary" id="text-0"><path d="M13.65 0.6Q9.5 0.6 5.7-0.5 1.9-1.6-0.4-3.3L-0.4-3.3 2.9-9.55Q5.3-7.8 8.3-6.85 11.3-5.9 14.45-5.9L14.45-5.9Q17.8-5.9 19.75-7 21.7-8.1 21.7-10L21.7-10Q21.7-11.55 20.15-12.38 18.6-13.2 15.2-14.15L15.2-14.15Q11.8-15.15 9.65-16.07 7.5-17 5.93-18.85 4.35-20.7 4.35-23.75L4.35-23.75Q4.35-27.3 6.33-30 8.3-32.7 11.93-34.15 15.55-35.6 20.35-35.6L20.35-35.6Q23.9-35.6 27.05-34.83 30.2-34.05 32.45-32.6L32.45-32.6 29.4-26.4Q27.45-27.75 25-28.43 22.55-29.1 19.9-29.1L19.9-29.1Q16.45-29.1 14.45-27.9 12.45-26.7 12.45-24.8L12.45-24.8Q12.45-23.65 13.3-22.88 14.15-22.1 15.45-21.63 16.75-21.15 19.1-20.5L19.1-20.5Q22.45-19.6 24.6-18.68 26.75-17.75 28.28-15.98 29.8-14.2 29.8-11.3L29.8-11.3Q29.8-7.7 27.8-5.03 25.8-2.35 22.15-0.88 18.5 0.6 13.65 0.6L13.65 0.6ZM34-10.95L35.25-17.2 49.4-17.2 48.15-10.95 34-10.95ZM64.85 0.6Q60.7 0.6 56.9-0.5 53.1-1.6 50.8-3.3L50.8-3.3 54.1-9.55Q56.5-7.8 59.5-6.85 62.5-5.9 65.65-5.9L65.65-5.9Q69-5.9 70.95-7 72.9-8.1 72.9-10L72.9-10Q72.9-11.55 71.35-12.38 69.8-13.2 66.4-14.15L66.4-14.15Q63-15.15 60.85-16.07 58.7-17 57.12-18.85 55.55-20.7 55.55-23.75L55.55-23.75Q55.55-27.3 57.52-30 59.5-32.7 63.12-34.15 66.75-35.6 71.55-35.6L71.55-35.6Q75.1-35.6 78.25-34.83 81.4-34.05 83.65-32.6L83.65-32.6 80.6-26.4Q78.65-27.75 76.2-28.43 73.75-29.1 71.1-29.1L71.1-29.1Q67.65-29.1 65.65-27.9 63.65-26.7 63.65-24.8L63.65-24.8Q63.65-23.65 64.5-22.88 65.35-22.1 66.65-21.63 67.95-21.15 70.3-20.5L70.3-20.5Q73.65-19.6 75.8-18.68 77.95-17.75 79.47-15.98 81-14.2 81-11.3L81-11.3Q81-7.7 79-5.03 77-2.35 73.35-0.88 69.7 0.6 64.85 0.6L64.85 0.6ZM118.84-31.25L115.29-25.2Q110.89-27.75 106.09-28.45L106.09-28.45 100.39 0 92.24 0 97.99-28.6Q92.29-28 87.94-25.35L87.94-25.35 85.84-31.45Q89.09-33.45 93.54-34.52 97.99-35.6 102.54-35.6L102.54-35.6Q107.24-35.6 111.42-34.48 115.59-33.35 118.84-31.25L118.84-31.25ZM146.74-35L154.84-35 147.84 0 139.99 0 140.74-3.7Q138.69-1.6 136.09-0.5 133.49 0.6 130.44 0.6L130.44 0.6Q125.04 0.6 121.92-2.45 118.79-5.5 118.79-11L118.79-11Q118.79-13.1 119.24-15.4L119.24-15.4 123.14-35 131.29-35 127.29-15.2Q126.99-13.65 126.99-12.3L126.99-12.3Q126.99-9.3 128.59-7.8 130.19-6.3 133.24-6.3L133.24-6.3Q136.84-6.3 139.34-8.45 141.84-10.6 142.74-15.05L142.74-15.05 146.74-35ZM156.14 0L163.14-35 177.79-35Q183.14-35 187.01-33.23 190.89-31.45 192.96-28.15 195.04-24.85 195.04-20.4L195.04-20.4Q195.04-14.3 192.29-9.68 189.54-5.05 184.61-2.53 179.69 0 173.24 0L173.24 0 156.14 0ZM165.59-6.65L173.49-6.65Q177.59-6.65 180.61-8.38 183.64-10.1 185.24-13.13 186.84-16.15 186.84-19.95L186.84-19.95Q186.84-23.9 184.29-26.13 181.74-28.35 176.89-28.35L176.89-28.35 169.94-28.35 165.59-6.65ZM221.29-28.55L215.14-28.55 210.74-6.45 216.79-6.45 215.54 0 195.24 0 196.49-6.45 202.59-6.45 206.99-28.55 200.99-28.55 202.24-35 222.54-35 221.29-28.55ZM239.73 0.6Q234.48 0.6 230.63-1.3 226.78-3.2 224.73-6.65 222.68-10.1 222.68-14.6L222.68-14.6Q222.68-20.55 225.41-25.33 228.13-30.1 233.06-32.85 237.98-35.6 244.33-35.6L244.33-35.6Q249.58-35.6 253.43-33.7 257.28-31.8 259.33-28.35 261.38-24.9 261.38-20.4L261.38-20.4Q261.38-14.45 258.66-9.68 255.93-4.9 251.01-2.15 246.08 0.6 239.73 0.6L239.73 0.6ZM240.43-6.3Q244.28-6.3 247.18-8.15 250.08-10 251.63-13.1 253.18-16.2 253.18-19.95L253.18-19.95Q253.18-23.95 250.68-26.33 248.18-28.7 243.63-28.7L243.63-28.7Q239.78-28.7 236.88-26.85 233.98-25 232.43-21.9 230.88-18.8 230.88-15.05L230.88-15.05Q230.88-11.05 233.38-8.68 235.88-6.3 240.43-6.3L240.43-6.3Z" fill="#000000" data-fill-palette-color="primary"></path></g></svg></g></svg></g></svg></g></svg></g><g><svg viewBox="0 0 78.1459986243496 113.43722206000385" height="113.43722206000385" width="78.1459986243496"><g><svg xmlns="http://www.w3.org/2000/svg" xmlns:xlink="http://www.w3.org/1999/xlink" version="1.1" x="0" y="0" viewBox="33.435 23.608 38.941 56.527" enable-background="new 0 0 100 100" xml:space="preserve" height="113.43722206000385" width="78.1459986243496" class="icon-icon-0" data-fill-palette-color="accent" id="icon-0"><g fill="#e77917" data-fill-palette-color="accent"><g fill="#e77917" data-fill-palette-color="accent"><path fill="#e77917" d="M55.876 23.608h-5.928c-2.481 0-4.5 2.019-4.5 4.5s2.019 4.5 4.5 4.5c0.828 0 1.5-0.671 1.5-1.5s-0.672-1.5-1.5-1.5c-0.827 0-1.5-0.673-1.5-1.5s0.673-1.5 1.5-1.5h5.928c7.444 0 13.5 6.056 13.5 13.5v2.766c0 7.444-6.056 13.5-13.5 13.5-0.828 0-1.5 0.671-1.5 1.5s0.672 1.5 1.5 1.5c9.098 0 16.5-7.402 16.5-16.5v-2.766C72.376 31.01 64.974 23.608 55.876 23.608z" data-fill-palette-color="accent"></path><path fill="#e77917" d="M49.948 56.374c-0.827 0-1.5-0.673-1.5-1.5s0.673-1.5 1.5-1.5h5.928c5.79 0 10.5-4.71 10.5-10.5v-2.766c0-5.79-4.71-10.5-10.5-10.5-0.828 0-1.5 0.671-1.5 1.5s0.672 1.5 1.5 1.5c4.136 0 7.5 3.364 7.5 7.5v2.766c0 4.136-3.364 7.5-7.5 7.5h-5.928c-2.481 0-4.5 2.019-4.5 4.5s2.019 4.5 4.5 4.5c0.828 0 1.5-0.671 1.5-1.5S50.776 56.374 49.948 56.374z" data-fill-palette-color="accent"></path><path fill="#e77917" d="M37.935 23.608c-2.378 0-4.311 1.859-4.47 4.197-0.02 0.098-0.03 0.199-0.03 0.303v47.527c0 0.104 0.011 0.205 0.03 0.303 0.159 2.338 2.092 4.197 4.47 4.197 2.481 0 4.5-2.019 4.5-4.5 0-0.829-0.672-1.5-1.5-1.5s-1.5 0.671-1.5 1.5c0 0.827-0.673 1.5-1.5 1.5s-1.5-0.673-1.5-1.5V28.108c0-0.827 0.673-1.5 1.5-1.5s1.5 0.673 1.5 1.5c0 0.829 0.672 1.5 1.5 1.5s1.5-0.671 1.5-1.5C42.435 25.627 40.416 23.608 37.935 23.608z" data-fill-palette-color="accent"></path><path fill="#e77917" d="M40.935 32.608c-0.828 0-1.5 0.671-1.5 1.5v35.527c0 0.829 0.672 1.5 1.5 1.5s1.5-0.671 1.5-1.5V34.108C42.435 33.28 41.763 32.608 40.935 32.608z" data-fill-palette-color="accent"></path></g></g></svg></g></svg></g></svg></g></svg></g><defs></defs></svg><rect width="395.52" height="92.20741944648103" fill="none" stroke="none" visibility="hidden"></rect></g></svg></g></svg>