<svg xmlns="http://www.w3.org/2000/svg" version="1.1" xmlns:xlink="http://www.w3.org/1999/xlink" xmlns:svgjs="http://svgjs.dev/svgjs" width="128" height="128" viewBox="0 0 128 128"><g transform="matrix(0.5597826086956522,0,0,0.5597826086956522,27.86775726621527,12.506335372881331)"><svg viewBox="0 0 41 59" data-background-color="#0c0c1d" preserveAspectRatio="xMidYMid meet" height="184" width="128" xmlns="http://www.w3.org/2000/svg" xmlns:xlink="http://www.w3.org/1999/xlink"><g id="tight-bounds" transform="matrix(1,0,0,1,0.17518501089745087,-0.0036289999999894462)"><svg viewBox="0 0 40.6496299782051 59.007257999999986" height="59.007257999999986" width="40.6496299782051"><g><svg viewBox="0 0 40.6496299782051 59.007257999999986" height="59.007257999999986" width="40.6496299782051"><g><svg viewBox="0 0 40.6496299782051 59.007257999999986" height="59.007257999999986" width="40.6496299782051"><g><svg viewBox="0 0 40.6496299782051 59.007257999999986" height="59.007257999999986" width="40.6496299782051"><g id="textblocktransform"><svg viewBox="0 0 40.6496299782051 59.007257999999986" height="59.007257999999986" width="40.6496299782051" id="textblock"><g><svg viewBox="0 0 40.6496299782051 59.007257999999986" height="59.007257999999986" width="40.6496299782051"><g><svg viewBox="0 0 40.6496299782051 59.007257999999986" height="59.007257999999986" width="40.6496299782051"><g><svg xmlns="http://www.w3.org/2000/svg" xmlns:xlink="http://www.w3.org/1999/xlink" version="1.1" x="0" y="0" viewBox="33.435 23.608 38.941 56.527" enable-background="new 0 0 100 100" xml:space="preserve" height="59.007257999999986" width="40.6496299782051" class="icon-icon-0" data-fill-palette-color="accent" id="icon-0"><g fill="#e77917" data-fill-palette-color="accent"><g fill="#e77917" data-fill-palette-color="accent"><path fill="#e77917" d="M55.876 23.608h-5.928c-2.481 0-4.5 2.019-4.5 4.5s2.019 4.5 4.5 4.5c0.828 0 1.5-0.671 1.5-1.5s-0.672-1.5-1.5-1.5c-0.827 0-1.5-0.673-1.5-1.5s0.673-1.5 1.5-1.5h5.928c7.444 0 13.5 6.056 13.5 13.5v2.766c0 7.444-6.056 13.5-13.5 13.5-0.828 0-1.5 0.671-1.5 1.5s0.672 1.5 1.5 1.5c9.098 0 16.5-7.402 16.5-16.5v-2.766C72.376 31.01 64.974 23.608 55.876 23.608z" data-fill-palette-color="accent"></path><path fill="#e77917" d="M49.948 56.374c-0.827 0-1.5-0.673-1.5-1.5s0.673-1.5 1.5-1.5h5.928c5.79 0 10.5-4.71 10.5-10.5v-2.766c0-5.79-4.71-10.5-10.5-10.5-0.828 0-1.5 0.671-1.5 1.5s0.672 1.5 1.5 1.5c4.136 0 7.5 3.364 7.5 7.5v2.766c0 4.136-3.364 7.5-7.5 7.5h-5.928c-2.481 0-4.5 2.019-4.5 4.5s2.019 4.5 4.5 4.5c0.828 0 1.5-0.671 1.5-1.5S50.776 56.374 49.948 56.374z" data-fill-palette-color="accent"></path><path fill="#e77917" d="M37.935 23.608c-2.378 0-4.311 1.859-4.47 4.197-0.02 0.098-0.03 0.199-0.03 0.303v47.527c0 0.104 0.011 0.205 0.03 0.303 0.159 2.338 2.092 4.197 4.47 4.197 2.481 0 4.5-2.019 4.5-4.5 0-0.829-0.672-1.5-1.5-1.5s-1.5 0.671-1.5 1.5c0 0.827-0.673 1.5-1.5 1.5s-1.5-0.673-1.5-1.5V28.108c0-0.827 0.673-1.5 1.5-1.5s1.5 0.673 1.5 1.5c0 0.829 0.672 1.5 1.5 1.5s1.5-0.671 1.5-1.5C42.435 25.627 40.416 23.608 37.935 23.608z" data-fill-palette-color="accent"></path><path fill="#e77917" d="M40.935 32.608c-0.828 0-1.5 0.671-1.5 1.5v35.527c0 0.829 0.672 1.5 1.5 1.5s1.5-0.671 1.5-1.5V34.108C42.435 33.28 41.763 32.608 40.935 32.608z" data-fill-palette-color="accent"></path></g></g></svg></g></svg></g></svg></g></svg></g></svg></g></svg></g></svg></g><defs></defs></svg><rect width="40.6496299782051" height="59.007257999999986" fill="none" stroke="none" visibility="hidden"></rect></g></svg></g></svg>